<svg width="634" height="339" viewBox="0 0 634 339" fill="none" xmlns="http://www.w3.org/2000/svg">
<path d="M326.073 94.9838L298.99 94.759L258.636 304.056L244.282 305.405L261.886 203.566L253.49 207.613C246.449 210.985 244.011 211.21 237.511 212.559C231.011 213.683 224.782 213.683 218.824 212.784C212.324 211.884 209.616 210.76 204.741 208.063C199.866 205.365 195.803 201.318 192.824 196.822C189.845 192.101 187.408 188.055 186.595 181.535C185.783 175.016 186.866 168.496 188.762 159.729L203.116 93.1853L173.866 92.7357L175.762 83.5186L327.698 85.0922L326.073 94.9838ZM284.094 94.3094L218.011 93.4102L204.199 160.853C203.116 165.799 202.574 170.52 202.574 174.566C202.574 178.613 203.116 182.21 204.47 185.357C205.824 188.504 207.991 190.977 210.699 192.776C213.407 194.799 217.199 195.923 222.074 196.597C229.657 197.721 238.053 196.373 245.095 193.225C252.136 190.303 260.803 186.931 266.219 181.31L284.094 94.3094Z" fill="#F0F0F0"/>
<path d="M453.634 317.32L441.176 309.451L584.174 152.76L395.406 34.2854L404.885 23.9442L606.383 150.062L601.508 155.457L453.634 317.32Z" fill="#F1D00A"/>
<path d="M229.116 335.979L238.595 325.413L49.5547 206.714L192.824 50.2468L180.366 42.3784L27.6174 209.187L33.8465 213.233L229.116 335.979Z" fill="#F1D00A"/>
<path d="M354.794 27.5689L338.202 25.4266L279.925 336.414L296.516 338.556L354.794 27.5689Z" fill="#F1D00A"/>
<path d="M358.843 189.179L378.343 94.534L402.718 93.4099C405.155 93.1851 407.593 93.1851 410.03 93.4099C440.363 94.3092 443.342 111.844 439.28 131.852L436.301 146.465C430.884 173.217 421.405 186.481 381.322 188.279L358.843 189.179ZM415.176 82.1695C412.197 82.1695 409.218 82.1695 406.239 82.1695L363.718 84.1928L317.948 306.304L335.281 305.629L356.677 200.194L379.697 199.07C433.051 196.597 447.947 178.388 453.905 146.465L456.613 131.403C461.488 103.751 452.28 83.2935 415.176 82.1695Z" fill="#F0F0F0"/>
</svg>
